<svg width="24" height="24" viewBox="0 0 24 24" fill="none" xmlns="http://www.w3.org/2000/svg">
<g id="ic_24_edit">
<g id="Icon">
<path d="M18 12C17.45 12 17 11.55 17 11C17 10.45 17.45 10 18 10C18.55 10 19 10.45 19 11C19 11.55 18.55 12 18 12Z" fill="#727683"/>
<path d="M12 12C11.45 12 11 11.55 11 11C11 10.45 11.45 10 12 10C12.55 10 13 10.45 13 11C13 11.55 12.55 12 12 12Z" fill="#727683"/>
<path d="M6 12C5.45 12 5 11.55 5 11C5 10.45 5.45 10 6 10C6.55 10 7 10.45 7 11C7 11.55 6.55 12 6 12Z" fill="#727683"/>
<path d="M18 12C17.45 12 17 11.55 17 11C17 10.45 17.45 10 18 10C18.55 10 19 10.45 19 11C19 11.55 18.55 12 18 12Z" stroke="#727683" stroke-width="0.6"/>
<path d="M12 12C11.45 12 11 11.55 11 11C11 10.45 11.45 10 12 10C12.55 10 13 10.45 13 11C13 11.55 12.55 12 12 12Z" stroke="#727683" stroke-width="0.6"/>
<path d="M6 12C5.45 12 5 11.55 5 11C5 10.45 5.45 10 6 10C6.55 10 7 10.45 7 11C7 11.55 6.55 12 6 12Z" stroke="#727683" stroke-width="0.6"/>
</g>
</g>
</svg>
