<svg width="72" height="72" viewBox="0 0 72 72" fill="none" xmlns="http://www.w3.org/2000/svg">
<g id="app_icon">
<rect width="72" height="72" rx="24" fill="#6728FF"/>
<path id="seemple" d="M34.1776 56.1637C30.1705 56.1637 26.9734 55.844 24.5861 55.2045C22.2416 54.6077 20.5577 53.7765 19.5346 52.7108C18.5115 51.645 18 50.4727 18 49.1939C18 48.2134 18.2558 47.0838 18.7673 45.8049C19.3215 44.526 20.1101 43.3111 21.1332 42.1601C21.8579 43.1406 22.8171 44.0571 24.0107 44.9097C25.2469 45.7196 26.5897 46.3804 28.0391 46.8919C29.4885 47.3609 30.8952 47.5953 32.2593 47.5953C33.7513 47.5953 35.0941 47.2543 36.2877 46.5722C37.4813 45.8475 38.27 44.6326 38.6536 42.9275C32.0888 42.1601 27.3783 40.7108 24.5222 38.5793C21.6661 36.4053 20.238 33.3999 20.238 29.5633C20.238 27.1335 20.8135 25.066 21.9645 23.3609C23.1155 21.6557 24.6501 20.2916 26.5684 19.2685C28.5293 18.2028 30.746 17.4355 33.2185 16.9665C35.7336 16.455 38.3339 16.1992 41.0195 16.1992C43.5346 16.1992 45.7726 16.5402 47.7336 17.2223C49.6945 17.8617 51.2291 18.7356 52.3375 19.844C53.4458 20.9523 54 22.2312 54 23.6806C54 25.7267 53.254 27.2827 51.762 28.3484C50.3126 29.4141 48.6501 29.947 46.7744 29.947C45.4956 29.947 44.1528 29.5207 42.746 28.6681C41.3393 27.8156 40.2096 26.4941 39.357 24.7037C37.7797 25.1726 36.5222 25.8546 35.5844 26.7498C34.6465 27.6024 33.8153 28.8386 33.0906 30.4585C37.9503 31.1832 41.8082 32.0998 44.6643 33.2081C47.5204 34.3164 49.5666 35.7232 50.8028 37.4283C52.0817 39.0909 52.7211 41.1584 52.7211 43.6308C52.7211 45.5918 52.2735 47.2969 51.3783 48.7463C50.5258 50.1957 49.3961 51.3893 47.9893 52.3271C46.5826 53.2649 45.048 54.0109 43.3854 54.5651C41.7229 55.1619 40.0817 55.5669 38.4618 55.78C36.8419 56.0358 35.4139 56.1637 34.1776 56.1637Z" fill="white"/>
</g>
</svg>
